<svg width="35" height="35" viewBox="0 0 35 35" fill="none" xmlns="http://www.w3.org/2000/svg">
<circle cx="17.4307" cy="17.4307" r="15.9307" stroke="black" stroke-width="3"/>
<g clip-path="url(#clip0_42_62)">
<path d="M17.1316 27.1175C16.5543 27.1175 16.0862 26.6496 16.0862 26.0721V9.34515C16.0862 8.76786 16.5543 8.29971 17.1316 8.29971C17.7091 8.29971 18.1771 8.76786 18.1771 9.34515V26.0721C18.1771 26.6496 17.7091 27.1175 17.1316 27.1175Z" fill="black"/>
<path d="M25.4951 18.7541H8.76809C8.1908 18.7541 7.72266 18.2861 7.72266 17.7086C7.72266 17.1314 8.1908 16.6632 8.76809 16.6632H25.4951C26.0726 16.6632 26.5405 17.1314 26.5405 17.7086C26.5405 18.2861 26.0726 18.7541 25.4951 18.7541Z" fill="black"/>
</g>
<defs>
<clipPath id="clip0_42_62">
<rect width="19.0485" height="19.0485" fill="white" transform="translate(7.61792 8.19504)"/>
</clipPath>
</defs>
</svg>
